<svg xmlns="http://www.w3.org/2000/svg" id="Calque_1" data-name="Calque 1" viewBox="0 0 100 80" width="100" height="80"><path d="M53.83,54.33h13.56c2.62,0,4.85-.42,6.7-1.26,1.85-.84,3.26-2.3,4.24-4.37.97-2.07,1.46-4.94,1.46-8.63s-.5-6.56-1.48-8.63c-.99-2.07-2.44-3.52-4.34-4.37-1.9-.84-4.23-1.26-6.99-1.26h-13.15v-12.19h13.87c5.44,0,10.15,1.05,14.12,3.16,3.97,2.11,7.04,5.14,9.2,9.09,2.16,3.95,3.24,8.69,3.24,14.2s-1.08,10.24-3.23,14.2-5.2,6.98-9.15,9.09c-3.94,2.11-8.6,3.17-13.98,3.17h-14.08v-12.19Z" fill="#e94560"></path><path d="M7.54,66.38V13.47h38.13v12.34h-23.77v28.52h23.66v12.05H7.54Z" fill="#e94560"></path><circle cx="61.9" cy="39.57" r="6.81" fill="#e94560"></circle><circle cx="36.2" cy="39.72" r="6.54" fill="#e94560"></circle></svg>