<?xml version="1.0" encoding="UTF-8"?>
<svg id="Calque_1" data-name="Calque 1" xmlns="http://www.w3.org/2000/svg" viewBox="0 0 90 18">
  <path d="M40.36,12.49h3.35c.65,0,1.2-.1,1.66-.31.46-.21.81-.57,1.05-1.08.24-.51.36-1.22.36-2.13s-.12-1.62-.37-2.13c-.25-.51-.6-.87-1.07-1.08-.47-.21-1.05-.31-1.73-.31h-3.25v-3.02h3.43c1.35,0,2.51.26,3.49.78.98.52,1.74,1.27,2.28,2.25.54.98.8,2.15.8,3.51s-.27,2.53-.8,3.51-1.29,1.73-2.26,2.25c-.98.52-2.13.78-3.46.78h-3.48v-3.02Z" fill="#e94560"/>
  <path d="M60.41,15.5h3.84l-4.32-13.09h-4.86l-4.32,13.09h3.83l.76-2.51h4.32l.76,2.51ZM56.14,10.34l1.3-4.32h.1l1.3,4.32h-2.71Z" fill="#fff"/>
  <path d="M63.48,5.28v-2.86h11.38v2.86h-3.94v10.23h-3.5V5.28h-3.94Z" fill="#fff"/>
  <path d="M83.75,15.5h3.84l-4.32-13.09h-4.86l-4.32,13.09h3.83l.76-2.51h4.32l.76,2.51ZM79.48,10.34l1.3-4.32h.1l1.3,4.32h-2.71Z" fill="#fff"/>
  <path d="M28.9,15.47V2.38h9.43v3.05h-5.88v7.06h5.86v2.98h-9.41Z" fill="#e94560"/>
  <path d="M2.41,15.47V2.38h3.55v5.11h4.7V2.38h3.55v13.09h-3.55v-5.11h-4.7v5.11h-3.55ZM23.66,2.38h3.55v8.39c0,1-.24,1.86-.71,2.59s-1.14,1.29-1.98,1.68c-.85.39-1.83.59-2.95.59s-2.12-.2-2.97-.59c-.85-.39-1.51-.95-1.98-1.68-.47-.73-.71-1.59-.71-2.59V2.38h3.55v8.08c0,.4.09.77.27,1.08.18.32.43.57.74.74.32.18.68.27,1.08.27s.77-.09,1.09-.27c.32-.18.56-.43.74-.74.18-.32.27-.68.27-1.08V2.38Z" fill="#fff"/>
  <circle cx="42.35" cy="8.83" r="1.68" fill="#e94560"/>
  <circle cx="35.99" cy="8.87" r="1.62" fill="#e94560"/>
</svg>